<svg width="227.78" height="84.828" version="1.1" viewBox="0 0 227.78 84.828" xmlns="http://www.w3.org/2000/svg" xmlns:cc="http://creativecommons.org/ns#" xmlns:dc="http://purl.org/dc/elements/1.1/" xmlns:rdf="http://www.w3.org/1999/02/22-rdf-syntax-ns#">
 <metadata>
  <rdf:RDF>
   <cc:Work rdf:about="">
    <dc:format>image/svg+xml</dc:format>
    <dc:type rdf:resource="http://purl.org/dc/dcmitype/StillImage"/>
    <dc:title>Asset 5</dc:title>
   </cc:Work>
  </rdf:RDF>
 </metadata>
 <title>Asset 5</title>
 <g transform="translate(-941.09 -81.402)" fill="#5fd" stroke-width=".22506px" aria-label="EupheNix">
  <path d="m968.76 109.45 6.5419-0.30009q1.8605 0 2.0406 0.78022 0.24007 0.72021 0.24007 1.0803 0 2.1006-1.5004 5.3415-1.4404 3.1809-2.1006 3.1809-0.60018 0-0.60018-0.48014l0.48014-3.601q0-1.8605-1.5004-2.9408-1.5004-1.0803-3.601-1.0803t-3.1209 0.30009q-1.0203 0.30008-1.6205 1.2604-4.3812 6.5419-7.9823 14.884h15.664l0.06 0.06q0 0.42012-0.84024 1.6805-0.84024 1.2004-1.3804 1.2004h-14.824q-1.6205 3.9611-3.1809 8.8825-1.5604 4.9214-1.5604 6.5419 0 1.5604 0.96028 2.3407 0.96027 0.72021 3.2409 0.72021 17.525 0 20.766-6.842 0.12003-0.18006 0.42012-0.18006 0.3601 0 0.3601 0.36011 0 0.3601-0.12003 0.96027-1.6805 5.2215-4.9814 6.6019-1.7405 0.72021-3.3009 0.96028-1.5004 0.18005-3.9011 0.18005h-18.125q-1.8605 0-1.8605-2.8208 0-4.8614 5.3415-17.705h-3.3009q-0.48014 0-0.48014-0.30009 0-0.60017 1.1403-1.6205 1.1403-1.0203 1.8605-1.0203h2.0406q5.5216-13.264 7.9823-16.145-5.6416 0.7202-10.323 2.4007-4.6213 1.6805-6.0617 4.1412-0.06 0.18005-0.30009 0.18005-0.24007 0-0.24007-0.30008 0-0.36011 0.06-0.48014 2.2806-6.2418 8.3424-7.6222 2.7608-0.60017 7.3821-0.60017z"/>
  <path d="m1001.5 127.16 2.8808 0.06q0.9003 0 1.1404-0.06-1.6805 1.1403-4.8614 7.9823-3.1209 6.7819-3.1209 9.7828 0 1.8005 1.2004 1.8005 0.78022 0 2.1006-1.0203 1.3804-1.0203 2.3407-2.2206 0.9603-1.2604 2.0406-3.0609 1.1403-1.8005 1.9205-3.1209 0.8403-1.3204 0.9603-1.3204 0.3601 0 0.3601 1.1403 0 1.1403-0.6602 2.1606-7.4421 12.424-12.424 12.424-3.361 0-3.361-4.9814 0-1.5604 0.24007-3.0009-5.6416 7.9823-10.743 7.9823-1.5004 0-2.4607-1.2604-0.90026-1.2604-0.90026-3.7211t1.7405-8.1023q1.7405-5.7016 4.2612-9.3627 0.60017-0.90025 1.2604-1.0803 0.7202-0.24006 2.6408-0.24006h2.8808q-1.5004 2.0406-3.2409 5.5216-3.9611 8.2223-3.9611 12.063 0 2.2806 1.6205 2.2806 1.6805 0 3.9611-3.1809t4.8614-8.2223q2.6408-5.1015 3.0609-5.7616 2.2206-3.481 4.2612-3.481z"/>
  <path d="m1031.9 138.5q-3.601 6.6019-7.8022 10.263t-9.9629 3.661q-5.7616 0-6.4818-2.9408l-3.361 10.503q-1.2003 3.541-1.8005 4.5613-0.6602 1.0803-1.4404 1.3804-0.7802 0.30009-1.9806 0.30009h-2.8808q1.5604-2.2806 6.3018-15.724 4.7414-13.504 6.2418-17.225 1.5604-3.7211 2.2806-4.5013 1.4405-1.4404 4.9815-1.4404h1.8005q-1.7405 1.2004-4.7414 7.2021 5.5816-7.4421 9.8428-7.4421 4.0212 0 4.0212 5.5216 0 4.5613-2.8808 9.3627-2.8809 4.8014-6.782 7.4421h0.4802q2.4607 0 4.9814-1.9806 2.5807-1.9806 4.4412-4.3812 1.0203-1.3204 2.8809-4.4413 1.8605-3.1809 1.9805-3.1809 0.4802 0 0.4802 1.0203 0 1.0203-0.6002 2.0406zm-11.703-6.3018q-0.1801-0.06-0.5402-0.06-1.2603 0-2.7608 1.2004-2.4607 1.9205-5.2215 6.3618-2.7608 4.4413-2.7608 7.2621 0 2.8208 1.7405 2.8208 3.1209 0 6.782-6.1818 3.661-6.1818 3.661-9.6628 0-1.5004-0.9002-1.7405z"/>
  <path d="m1057.8 139.28q-7.3822 12.424-12.484 12.424-3.541 0-3.541-4.0812 0-4.7414 3.7811-13.504 0.8402-2.2206 0.8402-3.0609 0-1.2004-1.0803-1.2004-0.7202 0-2.4607 0.84024-1.6805 0.84024-3.2409 2.4607-1.5605 1.6205-2.6408 3.7811-1.0203 2.1006-1.6805 3.661-0.6001 1.5604-1.2603 3.8411-0.6602 2.2206-1.2004 3.661-0.4801 1.3804-1.0203 3.2409h-5.8216q1.6204-4.1412 4.6213-13.204 3.0609-9.1226 5.2215-14.284 2.1606-5.2215 4.2012-8.7625 2.1006-3.601 4.7413-6.0017 2.7008-2.4007 5.6416-2.4007 3.0009 0 3.0009 2.8208 0 1.9806-1.6205 5.2215-3.481 6.842-11.643 15.845 3.2409-2.3407 5.1015-3.0609 1.9205-0.72021 3.661-0.72021 3.421 0 3.421 3.0009 0 1.2003-0.4201 2.2206t-0.9603 2.3407q-0.4801 1.3204-0.8402 2.1606-0.3001 0.84024-0.8403 2.2806-0.5401 1.4404-0.8402 2.4607-0.7802 2.5207-0.7802 4.0212t1.0203 1.5004q3.601 0 9.0025-10.443 0.1801-0.42012 0.4201-0.42012 0.3001 0 0.3001 1.1403 0 1.0803-0.6001 2.2206zm-7.2621-31.089q-2.1006 0-5.5216 6.6619-3.3609 6.6619-6.6019 15.304 8.2224-9.6628 11.223-15.845 1.6805-3.7811 1.6805-4.9214 0-1.2003-0.7802-1.2003z"/>
  <path d="m1079.6 135.74q0.3601 0 0.3601 1.2003 0 1.1403-0.9603 2.7608t-1.9205 3.0609q-0.9003 1.4404-2.4607 3.361-1.5605 1.9206-3.0609 3.0609-3.7811 2.7608-7.6222 2.7608-3.7811 0-6.1217-1.9206-2.3407-1.9806-2.3407-6.0017 0-6.1217 4.5013-11.343t10.503-5.2215q2.7007 0 4.3212 1.4404 1.6205 1.3804 1.6205 3.361 0 3.361-3.1809 5.4015t-7.5022 2.0406q-2.5207 0-3.721-0.66019-1.1404 3.0609-1.1404 5.4015 0 5.0414 4.2612 5.0414 2.5208 0 5.1615-1.9206 2.7008-1.9806 4.5613-4.3812 1.9206-2.4607 4.3213-7.022 0.24-0.42012 0.4201-0.42012zm-6.3618-4.7414q0-1.7405-1.6805-1.7405-2.3407 0-5.2215 2.8808t-2.8808 4.6813q0 1.2003 2.2806 1.2003 2.2807 0 4.7414-2.2206 2.5207-2.2206 2.7608-4.8014z"/>
  <path d="m1126.4 109.51q-2.4007 1.5604-6.7819 10.083-4.3213 8.5224-7.7422 17.825-3.361 9.2426-3.361 12.844 0 0.78022 0.12 1.0803h-3.781q-0.1801-3.481-1.2604-6.0617-1.0203-2.6408-1.5604-3.9011-0.5402-1.3204-1.8606-4.3212-1.3203-3.0009-2.3406-5.4015-3.1209-7.2621-3.541-12.364-3.9612 8.8225-7.8023 18.665-3.8411 9.8428-3.8411 12.844 0 0.42012 0.06 0.54016h-5.5216q3.421-8.7625 9.7828-23.107t7.7422-17.045q-5.4616 0-10.683 2.1606-5.1614 2.1606-6.0617 5.0414-0.06 0.18005-0.2401 0.18005-0.4801 0-0.4801-0.78023 0-0.12003 0.4801-1.6205 0.4802-1.5004 1.8006-3.1209 1.3803-1.6205 3.1809-2.4007 2.9408-1.2003 7.262-1.2003h10.143q-0.8402 1.3804-0.8402 3.361 0 4.4413 3.421 12.484 3.1208 7.5021 3.661 9.6027 0.6002 2.0406 0.7202 2.7008 0.1801 0.66019 0.2401 1.5604 0.06 0.90026 0.12 1.1403 0.7802-1.9206 13.384-30.849 0.1201-0.30009 1.0803-0.30009 1.0203 0 2.6408 0.18005 1.6204 0.18005 1.8605 0.18005z"/>
  <path d="m1126.2 127.34 3.0008 0.06h0.6002c-0.6402 0.48014-1.5004 1.7805-2.5807 3.9011-1.0403 2.1206-1.8206 3.7211-2.3407 4.8014s-1.1203 2.5407-1.8005 4.3812c-0.6402 1.8405-0.9603 3.341-0.9603 4.5013s0.3801 1.7405 1.1404 1.7405c0.5201 0 1.2403-0.3401 2.1606-1.0203 0.9603-0.72021 1.7405-1.4604 2.3406-2.2206 0.6002-0.80023 1.2604-1.8005 1.9806-3.0009 0.7602-1.2003 1.4004-2.2406 1.9205-3.1209 0.5602-0.88025 0.8803-1.3204 0.9603-1.3204 0.2401 0 0.3601 0.38011 0.3601 1.1403 0 0.72021-0.2 1.4204-0.6001 2.1006-1.4805 2.4807-2.8409 4.5613-4.0812 6.2418-1.2003 1.6405-2.5807 3.0809-4.1412 4.3212s-2.9809 1.8605-4.2612 1.8605c-2.2407 0-3.361-1.5604-3.361-4.6813 0-4.8414 1.6605-10.203 4.9815-16.085 1.4004-2.4007 2.9608-3.601 4.6813-3.601z"/>
  <path d="m1135.7 133.04q-3.2409 6.4218-3.7811 6.962-0.3001 0-0.3001-1.2003t0.2401-1.6805q0.9603-1.7405 1.8605-4.4413 0.9603-2.7608 1.6805-4.0212t1.8005-1.2604h3.1209q0.7202 4.0212 2.4007 9.3026 1.5004-1.5004 4.1412-4.5613 2.7008-3.1209 3.661-4.2012 0.5402-0.60018 1.8005-0.60018 1.2604 0 1.8606 0.06 0.6602 0 0.7802 0-4.8014 4.2612-11.763 11.523 2.0406 6.6019 3.7211 8.2223 0.8402 0.78022 1.7405 0.78022 2.4007 0 6.3018-4.8614 0.6002-0.72021 1.6805-2.5207 2.8808-4.6813 3.0008-4.6813 0.3001 0 0.3001 1.1403 0 1.1403-0.6602 2.2806-2.5207 4.3212-4.3812 6.5419-1.8606 2.2206-4.3813 4.1412-2.4607 1.9206-4.8013 1.9206-2.3407 0-3.9612-2.0406-1.6204-2.0406-2.8208-6.2418-5.0414 5.0414-7.202 7.7422h-4.4413q4.3212-3.9011 10.803-10.263-1.4404-3.9611-2.4007-8.0423z"/>
 </g>
 <path d="m227.35 0.0017833c-0.2358 0.02-0.5368 0.158-0.8104 0.36842l-24.649 18.955c-0.4378 0.3367-0.9474 1.0505-1.1157 1.5893l-1.3576 4.0731c1.7635 0.54387 3.1867 1.7031 4.0731 3.189l3.4836-1.7364c0.4716-0.23582 1.1789-0.81471 1.5156-1.2526l18.892-23.943c0.3704-0.4379 0.5072-0.94501 0.3052-1.1472-0.076-0.07588-0.1954-0.10639-0.3368-0.09401zm-30.153 27.353c-1.8415 0.045-3.5343 1.2461-4.1361 3.0523l-0.063 0.2422c-1.145 4.1087-3.8077 7.6073-7.3776 9.83 0.5725 0.23579 1.143 0.4423 1.7156 0.6107 6.0621 1.6502 12.358-1.8271 14.177-7.7883l0.1054-0.33671c0.6736-2.3575-0.745-4.8117-3.1366-5.4519-0.4294-0.1199-0.859-0.1684-1.284-0.15801z" fill="#008066" stroke-width=".33678"/>
</svg>
