<svg width="202.2" height="82.817" version="1.1" viewBox="0 0 202.2 82.817" xmlns="http://www.w3.org/2000/svg">
 <title>Asset 5</title>
 <path d="m199.18 0.023138c-0.22778 0.064163-0.49731 0.25651-0.72626 0.5148l-20.626 23.268c-0.36635 0.41331-0.73201 1.2105-0.79555 1.7714l-0.56411 4.2562c1.8345 0.20111 3.451 1.0708 4.602 2.3625l3.0931-2.3629c0.4186-0.32062 1.0039-1.0226 1.2518-1.5162l14.031-27.08c0.28105-0.49996 0.31964-1.0238 0.0831-1.1842-0.089-0.060165-0.21197-0.067584-0.34849-0.028726zm-24.446 32.555c-1.7999 0.39189-3.2354 1.891-3.4854 3.7784l-0.0161 0.24974c-0.34862 4.251-2.3028 8.1894-5.3888 11.046 0.60672 0.12345 1.206 0.21853 1.8 0.27578 6.2646 0.4759 11.791-4.1276 12.451-10.325l0.0399-0.35056c0.21635-2.4423-1.6401-4.5845-4.1096-4.7616-0.44432-0.03667-0.87535-0.0032-1.2907 0.08727z" fill="#008066" stroke-width=".33678"/>
 <g fill="#0a8" stroke-width="2.8714px" aria-label="EupheNix">
  <path d="m4.4794 46.485q0-2.5383-0.69679-3.7328-0.69679-1.2443-2.7872-1.2443h-0.99542v-0.99542h21.202q4.2305 0 4.2305 3.9817v3.7328h-0.99542q0-5.7236-6.2214-5.7236h-9.2574v12.94h13.438v1.9908h-13.438v13.936h8.7099q3.4342 0 5.3753-1.2443 1.9411-1.2443 3.0858-4.2305l0.99542 0.24885-1.742 4.7282q-0.89588 2.4885-3.7328 2.4885h-17.171z"/>
  <path d="m40.655 73.859q-3.7328 0-6.1218-1.9908-2.3392-1.9908-2.3392-6.9679v-8.9588q0-2.5383-0.69679-3.7328-0.69679-1.2443-2.7872-1.2443h-0.49771v-0.99542h3.9817q1.8415 0 2.7374 0.49771 0.94565 0.44794 1.3438 1.6922 0.39817 1.2443 0.39817 3.7826v8.9588q0 3.484 1.5429 5.1264 1.5927 1.5927 3.9319 1.5927 2.6379 0 4.9771-2.6379v-19.012h4.4794v23.392h-2.4885l-1.742-1.9908h-0.24885q-1.0452 1.0452-2.7374 1.7918-1.6424 0.69679-3.7328 0.69679z"/>
  <path d="m59.526 55.941q0-2.5383-0.69679-3.7328-0.69679-1.2443-2.7872-1.2443h-0.99542v-0.99542h4.4794q1.8913 0 2.8369 0.54748 0.99542 0.49771 1.3936 1.6922h0.24886q0.89588-1.1447 2.5383-1.9411 1.6424-0.79633 4.1808-0.79633 4.2803 0 6.6195 3.484 2.3392 3.4342 2.3392 8.7099 0 5.3255-2.4388 8.7597-2.389 3.4342-7.0177 3.4342-1.8913 0-3.3346-0.39817-1.4434-0.39817-2.8867-1.095v10.452h-4.4794zm9.2076 15.927q3.1853 0 4.6785-2.7872 1.5429-2.7872 1.5429-7.4159 0-4.5789-1.4434-7.3661-1.4434-2.8369-4.2803-2.8369-3.3346 0-5.2259 2.9863v15.927q1.4931 0.69679 2.5881 1.095 1.095 0.39817 2.1401 0.39817z"/>
  <path d="m85.512 46.485q0-2.5383-0.69679-3.7328-0.69679-1.2443-2.7872-1.2443h-0.99542v-0.99542h4.4794q1.8415 0 2.7374 0.49771 0.94565 0.44794 1.3438 1.6922 0.39817 1.2443 0.39817 3.7826v5.4748q1.0452-1.0452 2.6876-1.742 1.6922-0.74656 3.7826-0.74656 3.7328 0 6.072 1.9908 2.389 1.9908 2.389 6.9679v14.931h-4.4794v-14.931q0-3.484-1.5927-5.0766-1.5429-1.6424-3.8821-1.6424-2.6379 0-4.9771 2.6379v19.012h-4.4794z"/>
  <path d="m120.96 73.859q-3.3844 0-5.7236-1.5927-2.3392-1.6424-3.5337-4.3798-1.1945-2.7872-1.1945-6.2214 0-3.3844 1.1945-6.1716 1.1945-2.7872 3.4342-4.3798 2.2895-1.6424 5.3255-1.6424 5.0268 0 7.4656 2.8369 2.4885 2.7872 2.4885 8.1126l-0.0995 1.9908h-15.081q0 4.1808 1.7918 6.8186t4.9273 2.6379q2.3392 0 3.9319-0.99542 1.6424-0.99542 3.036-2.9863l0.99542 0.74656q-1.6424 2.7374-3.8324 3.9817-2.1899 1.2443-5.1264 1.2443zm4.7282-13.438q0-4.3798-1.294-6.6693-1.294-2.2895-3.9319-2.2895-1.4931 0-2.6876 1.1945-1.1945 1.1447-1.8913 3.1853-0.64702 2.0406-0.64702 4.5789z"/>
  <path d="m139.26 47.231v26.13h-1.9908v-26.876q0-2.389-1.0452-3.683-0.99541-1.294-3.4342-1.294h-0.4977v-0.99542h3.2351q2.2895 0 3.8821 0.74656t2.8369 2.2397l17.42 21.65v-24.637h1.9908v33.346h-0.99542z"/>
  <path d="m170.25 55.941c0-1.6922-0.23227-2.9365-0.6968-3.7328-0.46453-0.82951-1.3936-1.2443-2.7872-1.2443h-0.99542v-0.99542h4.4794c1.2277 0 2.1401 0.1659 2.7374 0.49771 0.63043 0.29862 1.0784 0.8627 1.3438 1.6922 0.26544 0.82951 0.39816 2.0904 0.39816 3.7826v17.42h-4.4794z"/>
  <path d="m188.02 62.162-4.3301-7.2168q-2.0904-3.6333-5.1264-3.9817v-0.99542h4.2305q1.6424 0 3.0858 1.0452 1.4434 1.0452 2.5383 2.9365l3.0858 5.2259 6.4702-9.2076h2.4885l-7.9633 11.198 4.3301 7.2168q2.0406 3.5835 5.3752 3.9817v0.99542h-4.4794q-1.6424 0-3.0858-1.0452-1.4434-1.0452-2.5383-2.9365l-3.0858-5.2259-6.4702 9.2076h-2.4885z"/>
 </g>
</svg>
